<svg xmlns="http://www.w3.org/2000/svg" viewBox="0 0 399 107.93"><defs><style>.cls-1{fill:#e31a13;}</style></defs><g id="レイヤー_2" data-name="レイヤー 2"><g id="レイヤー_2-2" data-name="レイヤー 2"><polygon class="cls-1" points="180.42 0 128.1 0 128.1 16.9 146.08 16.9 146.08 94.3 162.98 94.3 162.98 16.9 180.42 16.9 180.42 0"/><polygon class="cls-1" points="237.11 16.9 237.11 0 191.33 0 191.33 1.09 191.33 16.9 191.33 39.25 191.33 56.14 191.33 94.3 208.22 94.3 208.22 56.14 230.57 56.14 230.57 39.25 208.22 39.25 208.22 16.9 237.11 16.9"/><polygon class="cls-1" points="265.46 78.6 265.46 0 248.56 0 248.56 94.3 248.83 94.3 294.35 97.03 294.35 80.67 265.46 78.6"/><polygon class="cls-1" points="307.98 97.03 307.98 0 324.87 0 324.87 98.66 307.98 97.03"/><polygon class="cls-1" points="399 107.38 376.85 51.43 398.46 0 381.02 0 368.22 29.64 356.49 0 339.59 0 359.02 50.95 337.95 99.75 355.4 102.48 367.6 73.44 379.93 105.75 399 107.38"/><polygon class="cls-1" points="38.16 0 38.16 41.5 15.81 42.27 15.81 0 0 0 0 107.93 15.81 104.66 15.81 58.08 38.16 57.32 38.16 103.29 53.96 100.16 53.96 0 38.16 0"/><path class="cls-1" d="M116.26,61.38l-6.73-20.47h0L96.48.55h-6L86,18.27v0l-1.33,5.63-4,16.48h.07L67,98.93l15.9-2.6,6.58-23.39h13.19l9.12,22.25,16.18-.32-11.27-32.3Zm-24.75,0L95.1,44.1l5,17.28Z"/></g></g></svg>